<svg width="597" height="146" viewBox="0 0 597 146" fill="none" xmlns="http://www.w3.org/2000/svg">
<path d="M113.524 143H77.1242L32.3242 78.2V143H0.324219V2.99999H32.3242V63.8L75.1242 2.99999H111.524L64.3242 71.2L113.524 143ZM203.52 2.99999H235.52V143H211.52L157.52 67V143H125.52V2.99999H149.52L203.52 79V2.99999ZM377.904 124.8C363.771 138.8 346.571 145.8 326.304 145.8C306.037 145.8 288.837 138.8 274.704 124.8C260.571 110.8 253.504 93.5333 253.504 73C253.504 52.4667 260.571 35.2 274.704 21.2C288.837 7.19999 306.037 0.199991 326.304 0.199991C346.571 0.199991 363.771 7.19999 377.904 21.2C392.037 35.2 399.104 52.4667 399.104 73C399.104 93.5333 392.037 110.8 377.904 124.8ZM297.104 103C304.971 110.733 314.704 114.6 326.304 114.6C337.904 114.6 347.571 110.733 355.304 103C363.171 95.2667 367.104 85.2667 367.104 73C367.104 60.7333 363.171 50.7333 355.304 43C347.571 35.2667 337.904 31.4 326.304 31.4C314.704 31.4 304.971 35.2667 297.104 43C289.371 50.7333 285.504 60.7333 285.504 73C285.504 85.2667 289.371 95.2667 297.104 103ZM439.666 143L401.066 2.99999H434.666L458.866 101L485.866 2.99999H511.866L538.866 101L563.066 2.99999H596.666L558.066 143H521.666L498.866 60.4L476.066 143H439.666Z" fill="black"/>
</svg>
