<svg width="102" height="27" viewBox="0 0 102 27" fill="none" xmlns="http://www.w3.org/2000/svg">
<path d="M10.8742 26.504C8.37818 26.504 6.27818 25.952 4.57418 24.848C2.87018 23.72 1.67018 22.196 0.974176 20.276L5.22218 17.792C6.20618 20.36 8.13818 21.644 11.0182 21.644C12.4102 21.644 13.4302 21.392 14.0782 20.888C14.7262 20.384 15.0502 19.748 15.0502 18.98C15.0502 18.092 14.6542 17.408 13.8622 16.928C13.0702 16.424 11.6542 15.884 9.61418 15.308C8.48618 14.972 7.52618 14.636 6.73418 14.3C5.96618 13.964 5.18618 13.52 4.39418 12.968C3.62618 12.392 3.03818 11.672 2.63018 10.808C2.22218 9.944 2.01818 8.936 2.01818 7.784C2.01818 5.504 2.82218 3.692 4.43018 2.348C6.06218 0.979999 8.01818 0.295998 10.2982 0.295998C12.3382 0.295998 14.1262 0.799998 15.6622 1.808C17.2222 2.792 18.4342 4.172 19.2982 5.948L15.1222 8.36C14.1142 6.2 12.5062 5.12 10.2982 5.12C9.26618 5.12 8.45018 5.36 7.85018 5.84C7.27418 6.296 6.98618 6.896 6.98618 7.64C6.98618 8.432 7.31018 9.08 7.95818 9.584C8.63018 10.064 9.90218 10.592 11.7742 11.168C12.5422 11.408 13.1182 11.6 13.5022 11.744C13.9102 11.864 14.4502 12.068 15.1222 12.356C15.8182 12.62 16.3462 12.872 16.7062 13.112C17.0902 13.352 17.5222 13.676 18.0022 14.084C18.4822 14.492 18.8422 14.912 19.0822 15.344C19.3462 15.776 19.5622 16.304 19.7302 16.928C19.9222 17.528 20.0182 18.188 20.0182 18.908C20.0182 21.236 19.1662 23.084 17.4622 24.452C15.7822 25.82 13.5862 26.504 10.8742 26.504ZM28.0507 21.248H37.6627V26H23.0827V0.799998H28.0507V21.248ZM40.485 0.799998H45.453V26H40.485V0.799998ZM74.7778 0.799998V26H69.8458V9.656L62.7538 21.356H62.1778L55.0858 9.692V26H50.1178V0.799998H55.2298L62.4658 12.716L69.6658 0.799998H74.7778ZM95.6733 26L94.1613 21.464H84.1173L82.6053 26H77.2413L86.0613 0.799998H92.2173L101.073 26H95.6733ZM85.7013 16.82H92.6133L89.1573 6.524L85.7013 16.82Z" fill="white"/>
</svg>
