<svg width="564" height="146" viewBox="0 0 564 146" fill="none" xmlns="http://www.w3.org/2000/svg">
<path d="M56.418 145.8C42.1513 145.8 30.218 142.733 20.618 136.6C11.1513 130.333 4.41797 121.867 0.417969 111.2L28.018 95.2C33.618 108.133 43.418 114.6 57.418 114.6C70.0846 114.6 76.418 110.8 76.418 103.2C76.418 99.0667 74.3513 95.8667 70.218 93.6C66.218 91.2 58.618 88.4667 47.418 85.4C41.5513 83.8 36.418 82 32.018 80C27.618 78 23.2846 75.4 19.018 72.2C14.8846 68.8667 11.6846 64.7333 9.41797 59.8C7.28464 54.8667 6.21797 49.2 6.21797 42.8C6.21797 29.8667 10.818 19.5333 20.018 11.8C29.3513 4.06666 40.418 0.199991 53.218 0.199991C64.6846 0.199991 74.818 2.93332 83.618 8.39999C92.418 13.7333 99.3513 21.5333 104.418 31.8L77.418 47.6C74.8846 42.2667 71.7513 38.2667 68.018 35.6C64.2846 32.8 59.3513 31.4 53.218 31.4C48.418 31.4 44.6846 32.4667 42.018 34.6C39.4846 36.6 38.218 39.0667 38.218 42C38.218 45.4667 39.818 48.4667 43.018 51C46.3513 53.5333 53.1513 56.3333 63.418 59.4C69.018 61.1333 73.3513 62.5333 76.418 63.6C79.4846 64.6667 83.3513 66.4667 88.018 69C92.818 71.4 96.418 74 98.818 76.8C101.351 79.4667 103.551 83.0667 105.418 87.6C107.418 92 108.418 97.0667 108.418 102.8C108.418 116.133 103.618 126.667 94.018 134.4C84.418 142 71.8846 145.8 56.418 145.8ZM155.434 112.2H205.434V143H123.434V2.99999H155.434V112.2ZM219.527 2.99999H251.527V143H219.527V2.99999ZM415.582 2.99999V143H383.582V61.6L347.382 121H343.782L307.582 61.6V143H275.582V2.99999H307.582L345.582 65.2L383.582 2.99999H415.582ZM528.645 143L521.645 121H469.645L462.645 143H427.645L475.245 2.99999H516.045L563.645 143H528.645ZM479.245 91H512.045L495.645 39.6L479.245 91Z" fill="black"/>
</svg>
