<svg width="108" height="27" viewBox="0 0 108 27" fill="none" xmlns="http://www.w3.org/2000/svg">
<path d="M20.032 26H14.308L5.308 14.192V26H0.34V0.799998H5.308V11.924L13.948 0.799998H19.672L10.348 13.04L20.032 26ZM37.0684 0.799998H42.0364V26H38.2564L27.4564 10.592V26H22.4884V0.799998H26.2684L37.0684 16.172V0.799998ZM67.9151 22.724C65.3711 25.244 62.2751 26.504 58.6271 26.504C54.9791 26.504 51.8831 25.244 49.3391 22.724C46.8191 20.18 45.5591 17.072 45.5591 13.4C45.5591 9.728 46.8191 6.632 49.3391 4.112C51.8831 1.568 54.9791 0.295998 58.6271 0.295998C62.2751 0.295998 65.3711 1.568 67.9151 4.112C70.4591 6.632 71.7311 9.728 71.7311 13.4C71.7311 17.072 70.4591 20.18 67.9151 22.724ZM52.8311 19.34C54.3911 20.876 56.3231 21.644 58.6271 21.644C60.9311 21.644 62.8631 20.876 64.4231 19.34C65.9831 17.78 66.7631 15.8 66.7631 13.4C66.7631 11 65.9831 9.02 64.4231 7.46C62.8631 5.9 60.9311 5.12 58.6271 5.12C56.3231 5.12 54.3911 5.9 52.8311 7.46C51.2711 9.02 50.4911 11 50.4911 13.4C50.4911 15.8 51.2711 17.78 52.8311 19.34ZM79.3538 26L72.2978 0.799998H77.5178L82.3418 19.484L87.5978 0.799998H91.8458L97.1378 19.484L101.962 0.799998H107.182L100.126 26H94.4738L89.7218 9.368L85.0058 26H79.3538Z" fill="white"/>
</svg>
